<?xml version="1.0" encoding="UTF-8" standalone="no"?>
<svg xmlns:rdf="http://www.w3.org/1999/02/22-rdf-syntax-ns#" xmlns="http://www.w3.org/2000/svg" xml:space="preserve" height="89.752" viewBox="0 0 200 89.752296" width="200" version="1.1" xmlns:cc="http://creativecommons.org/ns#" xmlns:dc="http://purl.org/dc/elements/1.1/"><g transform="matrix(1.25 0 0 -1.25 -34.529 402.58)"><path d="m195.8 1.0605c-0.66 0-1.66 0.1488-2.25 0.2969-4.37 1.145-6.03 4.2508-6.4 9.8676-0.11 1.662-0.48 1.736-1.92 2.068-0.88 0.183-1.15 0.333-1.15 0.629 0 0.48 0.19 0.48 0.45 0.48h2.03c0.7 0 0.7 0.738 0.7 1.182v10.312c0 1.59-0.29 1.885-1.88 1.885-0.7 0-0.78 0.112-0.78 0.481 0 0.258 0.08 0.478 0.34 0.478 0.33 0 0.96-0.074 3.92-0.074 1.69 0 2.88 0.074 4.21 0.074 0.4 0 0.55-0.036 0.55-0.517 0-0.407-0.15-0.442-1.51-0.442-1.85 0-1.85-0.815-1.85-2.181v-11.198c0.85 0 3.69 0.186 3.95 0.186 0.78 0 1-0.444 1-0.926 0-0.515-0.11-0.775-0.37-0.775h-4.58v-4.7659c0-2.292 0.37-5.3594 2.47-5.3594 0.34 0 1 0.3324 1.63 0.8496 0.89 0.7404 1.7 0.8496 2.03 0.8496 1.11 0 1.74-0.7385 1.74-1.8105 0-1.2201-1.37-1.5899-2.33-1.5899zm-193.94 1.2579c-0.2544 0-0.3301 0.2594-0.3301 0.4804 0 0.3316-0.0005 0.627 0.4083 0.627 3.2159 0 3.8434 0.2971 3.8789 2.4765 0.0354 1.7019 0.0761 2.5875 0.0761 5.2087v8.463c0 4.067 2.3239 9.61 10.604 9.61 4.288 0 10.643-2.66 10.643-12.639v-8.7579c0-4.3609 0.741-4.3613 4.289-4.3613 0.294 0 0.33-0.3305 0.33-0.4785 0-0.5548-0.147-0.6289-0.516-0.6289-0.517 0-3.658 0.1484-4.803 0.1484-2.402 0-4.803-0.1484-5.433-0.1484-0.186 0-0.297 0.1106-0.297 0.5527 0 0.3337 0.001 0.5547 0.297 0.5547 3.806 0 4.877 0 4.877 5.1367v7.3185c0 8.795-3.732 11.197-8.055 11.197-6.209 0-8.2792-4.324-8.2792-9.275v-6.692c0-2.6212 0.0367-3.5068 0.0742-5.2087 0.0375-2.1794 0.665-2.4765 3.881-2.4765 0.404 0 0.404-0.2954 0.404-0.627 0-0.221-0.071-0.4804-0.33-0.4804-0.298 0-3.512 0.1484-5.8788 0.1484-2.3275 0-5.5416-0.1484-5.8399-0.1484zm52.655 0.1484c-1.11 0-1.924 0.9581-1.924 1.957 0 0.999 0.814 1.959 1.924 1.959 1.111 0 1.923-0.96 1.923-1.959 0-0.9989-0.812-1.957-1.923-1.957zm67.074 0c-1.11 0-1.92 0.9581-1.92 1.957 0 0.999 0.81 1.959 1.92 1.959s1.93-0.96 1.93-1.959c0-0.9989-0.82-1.957-1.93-1.957zm9.35 6.5391c-0.74 0-1.44 1.9591-4.88 4.5451-0.18 0.15-0.22 0.371-0.22 0.519 0 0.221 0.11 0.332 0.22 0.332h1.85c0.26 0 0.37 0.185 0.37 0.479v9.723c0 0.923 0 4.58 4.25 4.58 3.36 0 4.91-1.736 4.91-1.957 0-0.222-0.26-0.59-0.4-0.59-0.15 0-1.26 0.847-2.52 0.847-2.92 0-3.25-1.403-3.25-5.322v-7.76c3.07 0 4.81 0.186 5.07 0.186 0.77 0 0.99-0.444 0.99-0.924 0-0.517-0.11-0.777-0.37-0.777h-5.69c0-2.107 0.11-2.735 0.11-3.4007 0-0.3316-0.22-0.4804-0.44-0.4804zm-95.68 2.5141c-0.444 0-0.961 0.961-5.174 1.81-0.184 0.038-0.295 0.222-0.295 0.518 0 0.26 0.036 0.406 0.332 0.443 1.848 0.184 2.18 0.922 2.18 2.217v5.062c0 2.367-0.073 4.989-0.221 5.323-0.221 0.517-0.554 0.888-1.516 0.888-1.366 0-1.404 0.073-1.404 0.553 0 0.186 0.001 0.406 0.299 0.406 0.553 0 1.512-0.074 4.986-0.074 2.586 0 3.069 0.074 3.254 0.074 0.367 0 0.367-0.257 0.367-0.478 0-0.444-0.073-0.481-1.07-0.481-1.627 0-1.699-0.444-1.699-2.552v-9.459c0.148-0.445 2.141-1.7 3.547-1.7 3.841 0 4.138 2.29 4.138 5.727v6.615c0 1.22-0.332 1.369-2.107 1.369-0.444 0-0.518 0.332-0.518 0.516 0 0.185 0.039 0.443 0.26 0.443 0.296 0 0.888-0.074 3.881-0.074 1.958 0 2.623 0.074 3.73 0.074 0.518 0 0.518-0.257 0.518-0.478 0-0.259 0-0.481-0.369-0.481-2.29 0-2.402-0.702-2.402-1.33v-8.871c0-5.285-3.622-5.543-4.879-5.543-1.994 0-3.878 1.256-5.799 2.551 0-1.627 0.072-2.439 0.072-2.66 0-0.296-0.036-0.408-0.111-0.408zm20.738 0c-0.444 0-0.963 0.961-5.18 1.812-0.185 0.035-0.297 0.221-0.297 0.518 0 0.258 0.038 0.404 0.334 0.441 1.85 0.186 2.182 0.924 2.182 2.219v5.06c0 2.367-0.074 4.989-0.223 5.323-0.223 0.517-0.554 0.888-1.515 0.888-1.368 0-1.404 0.073-1.404 0.553 0 0.186 0 0.408 0.294 0.408 0.557 0 1.516-0.074 4.993-0.074 2.402 0 2.882 0.074 3.068 0.074 0.369 0 0.369-0.261 0.369-0.482 0-0.444-0.075-0.479-0.887-0.479-1.624 0-1.699-0.444-1.699-2.552v-7.981c0-4.805 0.184-5.174 0.184-5.322 0-0.221-0.073-0.406-0.219-0.406zm67.072 0c-0.44 0-0.96 0.961-5.17 1.812-0.19 0.035-0.3 0.221-0.3 0.518 0 0.258 0.04 0.404 0.34 0.441 1.84 0.186 2.18 0.924 2.18 2.219v5.06c0 2.367-0.08 4.989-0.23 5.323-0.22 0.517-0.55 0.888-1.51 0.888-1.37 0-1.41 0.073-1.41 0.553 0 0.186 0 0.408 0.3 0.408 0.55 0 1.52-0.074 4.99-0.074 2.4 0 2.88 0.074 3.07 0.074 0.36 0 0.36-0.261 0.36-0.482 0-0.444-0.07-0.479-0.88-0.479-1.63 0-1.7-0.444-1.7-2.552v-7.981c0-4.805 0.18-5.174 0.18-5.322 0-0.221-0.07-0.406-0.22-0.406zm-27.429 0.001c-0.443 0-0.963 0.96-5.178 1.809-0.179 0.036-0.293 0.222-0.293 0.518 0 0.258 0.038 0.405 0.334 0.445 1.846 0.183 2.182 0.922 2.182 2.217v9.385c0 1.591-0.298 1.886-1.887 1.886-0.703 0-1.145 0.112-1.145 0.481 0 0.258 0.076 0.478 0.332 0.478 0.705 0 1.33-0.074 4.285-0.074 1.7 0 2.883 0.074 4.213 0.074 0.407 0 0.555-0.036 0.555-0.515 0-0.407-0.147-0.444-1.516-0.444-1.845 0-1.845-0.815-1.845-2.181v-8.389c0-0.369-0.001-0.776 0.258-1.072 0.923-1.035 1.919-1.588 2.548-1.588 1.11 0 1.334 1.404 2.846 1.404 1.07 0 1.81-0.886 1.81-1.848 0-1.368-1.07-2.072-2.36-2.072-1.963 0-3.957 1.849-5.175 3.219 0-1.998 0.184-2.921 0.184-3.365 0-0.146-0.073-0.368-0.148-0.368zm-13.45 0.368c-3.808 0-7.392 3.586-7.392 8.871 0 5.172 2.772 8.424 8.058 8.424 4.876 0 6.358-4.583 6.358-4.694 0-0.11-0.337-0.443-0.594-0.443-0.186 0-0.334 0.333-0.553 0.629-1.186 1.697-2.622 2.217-4.326 2.217-4.027 0-6.06-3.696-6.06-6.098 0-0.703 0.036-1.401 0.146-2.106h10.533c0.296 0 0.446-0.037 0.446-0.406 0-1.107-0.484-6.394-6.616-6.394zm92.719 0.146c-4.91 0-8.57 3.698-8.57 8.574 0 4.916 3.51 8.575 8.57 8.575 5.18 0 8.62-3.4 8.62-8.575 0-4.986-3.66-8.574-8.62-8.574zm-64.62 0.002c-3.11 0-5.62 1.995-5.62 5.025 0 5.248 8.28 3.992 8.28 7.872 0 1.295-0.74 3.291-3.37 3.291-3.54 0-3.77-3.737-4.66-3.737-0.14 0-0.66 0.002-0.66 0.225 0 0.369 0.82 3.621 0.85 3.99 0 0.073 0.11 0.186 0.19 0.186 1.44 0 3.58 0.295 4.25 0.295 5.06 0 6.02-3.213 6.02-5.026 0-4.175-2.66-4.066-6.54-5.912-0.81-0.409-1.74-1.183-1.74-2.476 0-1.773 1.22-2.772 2.96-2.772 2.62 0 3.59 2.513 3.84 3.141 0.19 0.481 0.41 0.517 0.74 0.517 0.19 0 0.41-0.073 0.41-0.297 0-0.479-0.33-1.441-0.41-2.955 0-0.223-0.07-0.922-0.55-1.035-0.15-0.037-2.29-0.332-3.99-0.332zm-52.378 0.629c-0.221 0-0.404 0.148-0.404 0.408 0 0.515 0.147 0.625 1.144 0.625 0.555 0 0.924 0.037 1.291 0.592 0.52 0.738 3.588 9.758 4.881 12.529 0.741 1.59 0.998 2.366 1.405 2.366 0.294 0 0.629-0.445 1.664-2.92 0.665-1.552 2.882-6.211 4.173-9.389 1.185-2.88 1.294-3.028 3.436-3.361 0.334-0.038 0.373-0.186 0.373-0.407 0-0.183-0.077-0.443-0.334-0.443-1.074 0-2.18 0.072-3.252 0.072-1.032 0-2.183-0.072-3.178-0.072-0.333 0-0.48 0.26-0.48 0.443 0 0.297 0.111 0.518 0.33 0.518 0.557 0 2.48 0 2.48 1.072 0 0.997-0.591 2.402-4.066 10.125-0.776-1.627-3.773-9.09-3.773-10.31 0-0.776 1.037-0.887 2.146-0.887 0.223 0 0.371-0.26 0.371-0.445 0-0.186-0.04-0.516-0.299-0.516-0.738 0-3.658 0.072-4.394 0.072-1.187 0-2.329-0.072-3.514-0.072zm80.458 0c-0.23 0-0.41 0.145-0.41 0.443 0 0.257 0.07 0.518 0.33 0.518 0.48 0 2.33 0.001 2.66 0.85 0.78 2.068 1.48 5.283 3.81 11.271 0.41 1.034 1.29 3.215 1.29 4.139 0 1.737-1.73 5.283-2.4 5.283-0.44 0-0.93-0.627-1.85-0.627-1.07 0-2.14 0.887-2.14 1.994 0 1.147 0.89 2.182 2.07 2.182 1.22 0 2.44-0.481 5.29-7.614 0.82-2.068 5.94-12.785 7.27-15.851 0.55-1.295 1.07-1.517 2.33-1.627 0.51-0.038 0.62-0.151 0.62-0.482 0-0.149 0-0.479-0.26-0.479-1.14 0-2.29 0.072-3.43 0.072-1.19 0-2.4-0.072-3.58-0.072-0.19 0-0.34 0.22-0.34 0.479 0 0.296 0.03 0.482 0.37 0.482 1.11 0 2.85 0.036 2.85 1.256 0 1.147-3.07 7.65-4.79 11.162-2.41-6.171-3.67-9.833-3.67-11.607 0-0.812 1.59-0.811 1.82-0.811 0.25 0 0.37-0.297 0.37-0.482 0-0.259-0.08-0.479-0.45-0.479-1.11 0-2.41 0.072-3.66 0.072-1.33 0-3.66-0.072-4.1-0.072zm-56.179 0.186c1.254 0 3.254 0.625 3.254 3.507 0 0.999-0.523 1.221-1.257 1.221h-6.133c0.367-2.511 1.475-4.728 4.136-4.728zm92.719 0.146c3.89 0 5.11 3.991 5.11 7.611 0 3.141-0.74 7.616-5.11 7.616-4.32 0-5.05-4.475-5.05-7.616 0-3.62 1.21-7.611 5.05-7.611zm6.96 27.789c-0.46 0-2.71 1.359-6.49 2.016-0.24 0.048-0.38 0.281-0.38 0.654 0 0.327 0.14 0.513 0.42 0.561 2.57 0.233 2.71 0.796 2.71 4.865v16.365c0 2.011-0.09 8.18-0.28 8.6-0.28 0.657-0.7 1.125-1.68 1.125-1.73 0-1.78 0.094-1.78 0.701 0 0.233 0 0.512 0.38 0.512 0.47 0 1.68-0.092 6.07-0.092 3.28 0 3.89 0.092 4.12 0.092 0.47 0 0.47-0.328 0.47-0.608 0-0.561-0.1-0.605-1.36-0.605-2.06 0-2.15-0.561-2.15-3.229v-12.39c0.19-0.795 2.48-1.729 4.49-1.729 4.86 0 5.24 2.898 5.24 7.246v8.369c0 1.544-0.43 1.733-2.67 1.733-0.56 0-0.65 0.418-0.65 0.652s0.04 0.561 0.32 0.561c0.38 0 1.13-0.092 4.91-0.092 2.48 0 3.32 0.092 4.73 0.092 0.65 0 0.65-0.328 0.65-0.608 0-0.327 0-0.605-0.47-0.605-2.89 0-3.04-0.889-3.04-1.686v-11.221c0-6.686-4.58-7.015-6.17-7.015-2.85 0-4.91 1.171-7.34 2.806v-9.818c0-6.083 0.23-6.549 0.23-6.734 0-0.282-0.09-0.518-0.28-0.518zm-88.321 0.002c-0.469 0-2.713 1.357-6.5 2.016-0.234 0.046-0.373 0.279-0.373 0.652 0 0.327 0.14 0.513 0.422 0.561 2.571 0.235 2.713 0.794 2.713 4.863v24.406c0 1.124-0.096 1.684-0.096 2.385 0 0.236-0.001 0.607 0.375 0.607 0.655 0 0.606-1.355 1.822-1.355 1.402 0 3.648 1.824 7.199 1.824 4.299 0 10.009-3.086 10.009-11.08 0-7.95-5.28-10.895-9.866-10.895-2.526 0-3.975 0.698-5.658 2.198v-8.932c0-6.081 0.232-6.547 0.232-6.734 0-0.282-0.094-0.516-0.279-0.516zm-91.533 1.969c-0.3253 0-0.4199 0.328-0.4199 0.607 0 0.419 0.0005 0.793 0.5156 0.793 3.3661 0 4.1612 0.376 4.2071 3.133 0.0458 2.15 0.0937 3.276 0.0937 6.594v11.455c0 2.01-0.0488 5.047-0.1406 7.385-0.048 1.266-0.3301 2.058-4.0215 2.058-1.3118 0-1.3106 0.284-1.3106 0.797 0.00005 0.421-0.00035 0.608 0.3751 0.608 0.3274 0 0.5146-0.094 7.3886-0.094 6.9179 0 8.2269 0.094 8.5549 0.094 0.373 0 0.373-0.187 0.373-0.608 0-0.513 0.001-0.797-1.307-0.797-4.817 0-5.097-1.119-5.191-2.988-0.046-1.408-0.094-2.714-0.094-10.149 1.919 0.374 3.788 0.467 5.658 0.467 6.359 0 10.987-3.413 10.987-10.099 0-1.917-1.168-9.256-12.342-9.256-2.432 0-6.2197 0.187-6.6389 0.187-2.9469 0-6.3121-0.187-6.6875-0.187zm31.861 0.185c-1.404 0-2.432 1.215-2.432 2.479 0 1.262 1.028 2.48 2.432 2.48 1.401 0 2.432-1.218 2.432-2.48 0-1.264-1.031-2.479-2.432-2.479zm-18.91 1.215c4.582 0 7.668 3.415 7.668 8.231 0 5.376-3.833 8.324-8.93 8.324-2.384 0-2.666-0.703-2.666-1.779v-10.895c-0.048-3.879 0.374-3.881 3.928-3.881zm31.865 7.059c-0.934 0-1.821 2.479-6.172 5.754-0.233 0.187-0.281 0.466-0.281 0.654 0 0.279 0.141 0.42 0.281 0.42h2.34c0.325 0 0.465 0.236 0.465 0.609v12.297c0 1.168 0 5.797 5.379 5.797 4.254 0 6.22-2.195 6.22-2.477 0-0.279-0.327-0.75-0.517-0.75-0.188 0-1.589 1.077-3.18 1.077-3.693 0-4.113-1.777-4.113-6.735v-9.818c3.879 0 6.077 0.236 6.406 0.236 0.982 0 1.264-0.563 1.264-1.17 0-0.655-0.141-0.982-0.469-0.982h-7.201c0-2.665 0.141-3.46 0.141-4.303 0-0.421-0.284-0.609-0.563-0.609zm15.107 0c-0.934 0-1.823 2.479-6.171 5.754-0.234 0.187-0.282 0.466-0.282 0.654 0 0.279 0.14 0.42 0.282 0.42h2.337c0.328 0 0.467 0.236 0.467 0.609v12.297c0 1.168 0.001 5.797 5.377 5.797 4.255 0 6.219-2.195 6.219-2.477 0-0.279-0.326-0.75-0.514-0.75-0.185 0-1.59 1.077-3.179 1.077-3.694 0-4.114-1.777-4.114-6.735v-9.818c3.882 0 6.079 0.236 6.405 0.236 0.982 0 1.263-0.563 1.263-1.17 0-0.655-0.139-0.982-0.468-0.982h-7.2c0-2.665 0.139-3.46 0.139-4.303 0-0.421-0.279-0.609-0.561-0.609zm-26.191 3.183c-0.563 0-1.216 1.215-6.547 2.289-0.235 0.048-0.375 0.281-0.375 0.657 0 0.327 0.049 0.512 0.424 0.56 2.336 0.234 2.756 1.168 2.756 2.807v6.402c0 2.993-0.092 6.313-0.279 6.735-0.282 0.654-0.703 1.123-1.916 1.123-1.731 0-1.78 0.092-1.78 0.699 0 0.233 0 0.514 0.375 0.514 0.701 0 1.918-0.092 6.313-0.092 3.038 0 3.647 0.092 3.879 0.092 0.467 0 0.468-0.328 0.468-0.608 0-0.561-0.092-0.605-1.123-0.605-2.056 0-2.15-0.561-2.15-3.229v-10.098c0-6.079 0.234-6.544 0.234-6.732 0-0.281-0.093-0.514-0.279-0.514zm106.66 0c-0.56 0-1.21 1.215-6.54 2.291-0.24 0.046-0.38 0.279-0.38 0.653 0 0.327 0.05 0.512 0.42 0.56 2.34 0.234 2.76 1.17 2.76 2.809v11.875c0 2.01-0.37 2.385-2.38 2.385-0.89 0-1.45 0.138-1.45 0.607 0 0.328 0.09 0.608 0.42 0.608 0.89 0 1.68-0.094 5.42-0.094 2.15 0 3.65 0.094 5.33 0.094 0.52 0 0.7-0.046 0.7-0.655 0-0.515-0.18-0.56-1.91-0.56-2.34 0-2.34-1.031-2.34-2.76v-10.613c0-0.47 0-0.983 0.33-1.356 1.17-1.31 2.43-2.012 3.22-2.012 1.41 0 1.69 1.778 3.6 1.778 1.36 0 2.29-1.12 2.29-2.338 0-1.731-1.35-2.619-2.99-2.619-2.48 0-5 2.339-6.54 4.07 0-2.528 0.23-3.695 0.23-4.258 0-0.185-0.1-0.465-0.19-0.465zm19.78 0.512c-4.21 0-8.27 3.274-8.27 7.67 0 2.945 0.93 5.235 3.64 6.637-2.1 1.449-3.6 2.667-3.6 5.47 0 1.498 1.35 2.712 2.8 2.852-1.91 1.873-4.06 3.976-4.06 6.877 0 3.6 2.99 4.394 6.03 4.394 5.7 0 13.51-2.057 13.51-9.119 0-1.403 0.05-5.562-6.36-5.562h-6.92c-1.07 0-2.2-0.19-2.2-1.543 0-1.591 1.17-2.573 1.92-2.992 0.94 0.419 2.81 0.511 3.37 0.511 5.14 0 8.32-2.992 8.32-8.039 0-1.218-0.89-3.603-1.77-4.533 0.7-0.329 0.98-0.611 1.77-0.611 0.84 0 1.97 2.664 3.18 2.664 0.98 0 1.78-0.934 1.78-1.637 0-0.98-0.51-2.617-3.51-2.617-1.03 0-2.05 0.186-3.97 1.404-1.55-1.17-3.74-1.826-5.66-1.826zm-82.952 0.141c-3.927 0-7.107 2.526-7.107 6.361 0 6.636 10.474 5.046 10.474 9.955 0 1.637-0.935 4.162-4.255 4.162-4.488 0-4.767-4.722-5.891-4.722-0.188 0-0.842-0.001-0.842 0.281 0 0.469 1.029 4.583 1.074 5.053 0 0.089 0.143 0.232 0.235 0.232 1.825 0 4.536 0.373 5.379 0.373 6.404 0 7.619-4.067 7.619-6.359 0-5.283-3.366-5.143-8.276-7.481-1.028-0.513-2.197-1.495-2.197-3.135 0-2.239 1.544-3.505 3.74-3.505 3.323 0 4.538 3.179 4.864 3.976 0.233 0.607 0.514 0.652 0.933 0.652 0.236 0 0.516-0.091 0.516-0.373 0-0.606-0.42-1.823-0.516-3.742 0-0.279-0.092-1.164-0.701-1.308-0.186-0.044-2.899-0.42-5.049-0.42zm30.862 0.748c-0.51 0-0.51 0.562-0.51 0.937 0 0.467 0.65 0.467 1.03 0.467 2.43 0 2.9 0.28 2.9 4.395v7.295c0 4.861 1.31 7.853 5.94 7.853 1.77 0 4.62-0.839 6.96-2.57-0.05 0.465-0.14 1.212-0.14 1.773 0 0.328 0.24 0.656 0.56 0.656 0.28 0 1.4-0.562 5.38-1.216 1.49-0.232 1.54-0.326 1.54-0.608 0-0.886-0.09-0.885-0.28-0.885-0.33 0-1.35 0.186-2.01 0.186-1.17 0-1.17-0.984-1.17-1.732v-8.788c0-3.32 0.42-6.923 0.42-7.109 0-0.467-0.23-0.654-0.65-0.654-1.17 0-2.39 0.14-3.55 0.14-2.86 0-3.42-0.14-4.07-0.14-0.33 0-0.33 0.234-0.33 0.937 0 0.467 0.65 0.467 1.5 0.467 2.43 0 2.9 0.279 2.9 2.805v12.109c0 1.448-2.95 2.479-4.63 2.479-3.46 0-4.59-2.01-4.59-5.518v-12.625c0-0.655-0.09-0.654-0.37-0.654-0.66 0-2.43 0.14-4.07 0.14-1.54 0-2.29-0.14-2.76-0.14zm52.28 0.326c3.92 0 3.92 4.96 3.92 5.658 0 2.011-0.28 7.11-4.11 7.11-3.27 0-4.21-2.808-4.21-5.565 0-1.637 0.05-7.203 4.4-7.203zm-63.921 0.047c5.701 0 6.221 6.78 6.221 10.148 0 4.113-0.8 9.211-5.942 9.211-3.693 0-5.142-2.339-5.142-6.222v-8.504c0-2.901 1.868-4.633 4.863-4.633zm59.941 21.51h6.73c3.04 0 4.78 0.842 4.78 3.693 0 3.648-2.48 5.281-7.81 5.281-6.55 0-6.74-3.644-6.74-4.299 0-2.571 2.76-4.675 3.04-4.675z" transform="matrix(.8 0 0 -.8 27.623 322.06)" fill="#1c2957"/></g></svg>
